<?xml version="1.0" standalone="no"?>
<!DOCTYPE svg PUBLIC "-//W3C//DTD SVG 20010904//EN"
 "http://www.w3.org/TR/2001/REC-SVG-20010904/DTD/svg10.dtd">
<svg version="1.0" xmlns="http://www.w3.org/2000/svg"
 width="880.000000pt" height="880.000000pt" viewBox="0 0 880.000000 880.000000"
 preserveAspectRatio="xMidYMid meet">
<metadata>
Created by potrace 1.11, written by Peter Selinger 2001-2013
</metadata>
<g transform="translate(0.000000,880.000000) scale(0.100000,-0.100000)"
fill="#000000" stroke="none">
<path d="M3965 7154 c-242 -135 -725 -403 -1072 -597 l-633 -352 0 -770 0
-771 -85 -36 c-75 -33 -1042 -563 -1137 -624 l-38 -24 0 -438 0 -438 -441
-246 c-242 -135 -441 -249 -441 -253 0 -4 186 -111 414 -238 227 -126 707
-393 1066 -593 359 -200 657 -364 663 -364 9 0 430 232 1663 920 l489 272 31
-15 c17 -8 306 -167 641 -354 1005 -560 1439 -801 1467 -813 25 -12 81 17
1025 543 549 305 1033 575 1075 598 64 36 74 45 60 53 -9 6 -183 103 -387 217
l-370 206 -3 506 -2 505 -266 414 c-146 227 -269 414 -274 416 -17 6 -547
-237 -690 -317 l-145 -80 -5 865 -5 865 -1069 594 c-588 327 -1074 595 -1080
595 -6 0 -209 -111 -451 -246z"/>
</g>
</svg>
